<svg preserveAspectRatio="none" overflow="visible" style="display: block;" width="14.6667" height="19.25" viewBox="0 0 14.6667 19.25" fill="none" xmlns="http://www.w3.org/2000/svg">
<g id="Container">
<path id="Icon" d="M5.20208 10.725L6.00417 8.1125L3.89583 6.41667H6.50833L7.33333 3.85L8.15833 6.41667H10.7708L8.63958 8.1125L9.44167 10.725L7.33333 9.09792L5.20208 10.725V10.725M1.83333 19.25V12.1687C1.25278 11.5271 0.802083 10.7937 0.48125 9.96875C0.160417 9.14375 0 8.26528 0 7.33333C0 5.28611 0.710417 3.55208 2.13125 2.13125C3.55208 0.710417 5.28611 0 7.33333 0C9.38056 0 11.1146 0.710417 12.5354 2.13125C13.9562 3.55208 14.6667 5.28611 14.6667 7.33333C14.6667 8.26528 14.5062 9.14375 14.1854 9.96875C13.8646 10.7937 13.4139 11.5271 12.8333 12.1687V19.25L7.33333 17.4167L1.83333 19.25V19.25M7.33333 12.8333C8.86111 12.8333 10.1597 12.2986 11.2292 11.2292C12.2986 10.1597 12.8333 8.86111 12.8333 7.33333C12.8333 5.80556 12.2986 4.50694 11.2292 3.4375C10.1597 2.36806 8.86111 1.83333 7.33333 1.83333C5.80556 1.83333 4.50694 2.36806 3.4375 3.4375C2.36806 4.50694 1.83333 5.80556 1.83333 7.33333C1.83333 8.86111 2.36806 10.1597 3.4375 11.2292C4.50694 12.2986 5.80556 12.8333 7.33333 12.8333V12.8333" fill="#F2CA50"/>
</g>
</svg>
